<?xml version="1.0" standalone="no"?><!DOCTYPE svg PUBLIC "-//W3C//DTD SVG 1.1//EN" "http://www.w3.org/Graphics/SVG/1.1/DTD/svg11.dtd"><svg t="1616303944559" class="icon" viewBox="0 0 2139 1024" version="1.1" xmlns="http://www.w3.org/2000/svg" p-id="2228" xmlns:xlink="http://www.w3.org/1999/xlink" width="417.7734375" height="200"><defs><style type="text/css"></style></defs><path d="M149.914089 24.42246h1274.674971v717.004671H149.914089z" fill="#40B5A2" p-id="2229"></path><path d="M484.204239 697.085704l-40.862627 0.663893a9.958398 9.958398 0 0 0-8.139331 4.448084l-22.612203 34.044444a9.958398 9.958398 0 0 1-17.739226-2.277153l-13.277865-38.658502a9.958398 9.958398 0 0 0-6.758433-6.366736l-39.362228-10.980794a9.958398 9.958398 0 0 1-3.319466-17.579892l32.663546-24.564049a9.958398 9.958398 0 0 0 3.983359-8.39161l-1.719483-40.829433a9.958398 9.958398 0 0 1 15.694435-8.584139l33.453579 23.475264a9.991593 9.991593 0 0 0 9.234755 1.201647l38.306638-14.253788a9.958398 9.958398 0 0 1 13.012307 12.275386l-12.016467 39.070115a9.958398 9.958398 0 0 0 1.719484 9.121893L491.832372 680.919904a9.958398 9.958398 0 0 1-7.628133 16.1658z" fill="#4EBFA7" p-id="2230"></path><path d="M356.550852 722.001616a149.243194 102.14661 90 1 0 204.29322 0 149.243194 102.14661 90 1 0-204.29322 0Z" fill="#F9D4AA" p-id="2231"></path><path d="M1417.153456 337.494583l-15.734269 0.258919a3.843942 3.843942 0 0 0-3.133576 1.712844l-8.710279 13.111891a3.843942 3.843942 0 0 1-6.831461-0.876339l-5.105339-14.884486a3.843942 3.843942 0 0 0-2.602462-2.456405l-15.156682-4.228999a3.837303 3.837303 0 0 1-1.274675-6.765072l12.574138-9.460479a3.850581 3.850581 0 0 0 1.526954-3.23316l-0.663893-15.720991a3.837303 3.837303 0 0 1 6.041428-3.319466l12.879529 9.042226a3.837303 3.837303 0 0 0 3.545189 0.451447l14.751708-5.483758a3.837303 3.837303 0 0 1 5.012393 4.720281l-4.647252 15.050459a3.863859 3.863859 0 0 0 0.663893 3.511995l9.779147 12.328497a3.843942 3.843942 0 0 1-2.914491 6.240596zM1223.914058 289.428715l-40.610348-4.647253a9.958398 9.958398 0 0 0-8.630612 3.3593l-26.821285 30.831201a9.958398 9.958398 0 0 1-17.261224-4.554308l-8.159248-40.046039a9.958398 9.958398 0 0 0-5.868816-7.183324L1078.893224 251.228299a9.958398 9.958398 0 0 1-1.009117-17.852088l35.564759-20.135882a9.958398 9.958398 0 0 0 5.019033-7.807384l3.578384-40.709932a9.958398 9.958398 0 0 1 16.670359-6.479597l30.134113 27.604679a9.958398 9.958398 0 0 0 8.975836 2.36346l39.833593-9.181643a9.958398 9.958398 0 0 1 11.286185 13.855451l-16.935916 37.17802a9.958398 9.958398 0 0 0 0.524475 9.294505l21.032137 35.033645a9.958398 9.958398 0 0 1-9.653007 15.037182z" fill="#4EBFA7" p-id="2232"></path><path d="M1269.330993 707.761107h77.363476v56.895648h-77.363476z" fill="#FFFFFF" p-id="2233"></path><path d="M1126.242606 138.653878m51.856098 10.145568l-0.006515-0.001275q51.856098 10.145568 41.71053 62.001667l-28.00962 143.162966q-10.145568 51.856098-62.001666 41.710531l0.006515 0.001274q-51.856098-10.145568-41.71053-62.001666l28.00962-143.162967q10.145568-51.856098 62.001666-41.71053Z" fill="#FFFFFF" p-id="2234"></path><path d="M354.950869 461.901533l-15.734269 0.258918a3.824025 3.824025 0 0 0-3.133576 1.712844l-8.710279 13.111891a3.843942 3.843942 0 0 1-6.824822-0.882978l-5.111978-14.884485a3.830664 3.830664 0 0 0-2.602461-2.449766l-15.156682-4.229a3.843942 3.843942 0 0 1-1.274675-6.771711l12.574137-9.453839a3.85722 3.85722 0 0 0 1.533594-3.23316l-0.663894-15.720992a3.843942 3.843942 0 0 1 6.041429-3.319466l12.879528 9.035587a3.837303 3.837303 0 0 0 3.54519 0.458086l14.751707-5.490397a3.843942 3.843942 0 0 1 5.012394 4.72692l-4.614058 15.04382a3.837303 3.837303 0 0 0 0.663893 3.511995L357.898555 455.707409a3.837303 3.837303 0 0 1-2.947686 6.194124z" fill="#4EBFA7" p-id="2235"></path><path d="M1319.109796 173.124487m45.760143 26.419631l-0.00575-0.00332q45.760142 26.41963 19.340512 72.179773l-59.338775 102.777774q-26.41963 45.760142-72.179773 19.340512l0.005749 0.003319q-45.760142-26.41963-19.340511-72.179773l59.338775-102.777774q26.41963-45.760142 72.179773-19.340511Z" fill="#FFFFFF" p-id="2236"></path><path d="M1345.772321 236.126056a26.17067 26.17067 0 0 1 9.589274 35.732725l-54.512272 94.417565-45.328637-26.170671 54.512272-94.417565a26.17067 26.17067 0 0 1 35.739363-9.562054z" fill="#FFB985" p-id="2237"></path><path d="M518.786437 321.255755l-15.734269 0.258919a3.843942 3.843942 0 0 0-3.140215 1.719483l-8.70364 13.105252a3.837303 3.837303 0 0 1-6.831462-0.876339l-5.111977-14.884486a3.824025 3.824025 0 0 0-2.595823-2.449766l-15.156682-4.235638a3.837303 3.837303 0 0 1-1.281314-6.765072l12.613971-9.460479a3.830664 3.830664 0 0 0 1.526955-3.226521l-0.663893-15.72763a3.837303 3.837303 0 0 1 6.041428-3.319466l12.852972 9.028948a3.85722 3.85722 0 0 0 3.54519 0.458086l14.751707-5.490397a3.837303 3.837303 0 0 1 5.005755 4.72692l-4.647252 15.04382a3.843942 3.843942 0 0 0 0.663893 3.511995L521.707567 315.028437a3.843942 3.843942 0 0 1-2.92113 6.227318z" fill="#4EBFA7" p-id="2238"></path><path d="M1169.194652 188.894037a26.17067 26.17067 0 0 1 20.658365 30.708381l-20.929234 106.976433-51.367409-10.050015 20.929233-106.976433a26.17067 26.17067 0 0 1 30.709045-20.658366z" fill="#FFB985" p-id="2239"></path><path d="M1360.204696 453.330671l-15.734269 0.258919a3.824025 3.824025 0 0 0-3.133576 1.712844l-8.710279 13.111891a3.843942 3.843942 0 0 1-6.831461-0.882978l-5.105339-14.884486a3.830664 3.830664 0 0 0-2.602461-2.449766l-15.156683-4.229a3.843942 3.843942 0 0 1-1.274675-6.77171l12.574138-9.45384a3.843942 3.843942 0 0 0 1.533593-3.23316l-0.663893-15.720991a3.837303 3.837303 0 0 1 6.041428-3.319466l12.879529 9.068781a3.830664 3.830664 0 0 0 3.545189 0.458087l14.745069-5.490397a3.843942 3.843942 0 0 1 5.012393 4.726919l-4.647252 15.043821a3.837303 3.837303 0 0 0 0.663893 3.511995l9.805703 12.288663a3.837303 3.837303 0 0 1-2.941047 6.253874z" fill="#4EBFA7" p-id="2240"></path><path d="M149.927367 314.191931c24.955746 7.123574 74.455624 25.188109 116.340647 71.235742 12.043023 13.231392 35.597954 39.687536 48.291592 80.842277 14.154203 45.88166 9.340978 92.281157 8.803224 97.127577-2.17757 19.39896-5.65637 27.949904-3.545189 46.040995 2.144375 18.330092 8.544306 33.772248 22.964066 57.997711a521.972762 521.972762 0 0 0 60.414282 81.804922H149.927367z" fill="#F9D4AA" p-id="2241"></path><path d="M879.824844 453.330671l-15.734269 0.258919a3.824025 3.824025 0 0 0-3.133576 1.712844l-8.710279 13.111891a3.843942 3.843942 0 0 1-6.831461-0.882978l-5.105339-14.884486a3.843942 3.843942 0 0 0-2.602461-2.449766l-15.156682-4.229a3.843942 3.843942 0 0 1-1.274675-6.77171l12.574137-9.45384a3.850581 3.850581 0 0 0 1.526955-3.23316l-0.663894-15.720991a3.837303 3.837303 0 0 1 6.041429-3.319466L853.654174 416.537709a3.837303 3.837303 0 0 0 3.54519 0.458087l14.751707-5.490397a3.843942 3.843942 0 0 1 5.012394 4.726919l-4.647253 15.043821a3.843942 3.843942 0 0 0 0.663893 3.511995l9.792425 12.288663a3.843942 3.843942 0 0 1-2.947686 6.253874z" fill="#4EBFA7" p-id="2242"></path><path d="M1194.594451 816.398452a104.583098 154.348533 2.59 1 0 13.949599-308.381724 104.583098 154.348533 2.59 1 0-13.949599 308.381724Z" fill="#FFFFFF" p-id="2243"></path><path d="M785.445785 462.625176A98.535031 98.535031 0 0 0 686.917393 364.090145h-1.161813a109.582214 109.582214 0 0 0-3.983359-10.974154 111.208752 111.208752 0 0 0-40.012844-48.570428 119.792892 119.792892 0 0 0-11.372491-50.263355 117.787934 117.787934 0 0 0-14.844652-23.634599 12.965834 12.965834 0 0 0-20.64044 0.557671q-5.902011 8.225637-11.8173 17.294418a447.981199 447.981199 0 0 0-19.790656 33.592997 154.541062 154.541062 0 0 0-95.540873 36.387987c-9.214838-2.854741-19.073652-5.643092-29.556525-8.165887q-11.99655-2.86138-23.18979-4.892893a15.077015 15.077015 0 0 0-17.818894 14.678679 495.085086 495.085086 0 0 0 19.120124 139.995162 98.535031 98.535031 0 1 0 120.085005 136.894781 98.54167 98.54167 0 0 0 160.038098-36.314959 98.535031 98.535031 0 0 0 89.014802-98.050389z" fill="#FFFFFF" p-id="2244"></path><path d="M635.233306 472.603491L619.379536 490.893749a15.581574 15.581574 0 0 1-15.468711 4.939366 306.054772 306.054772 0 0 0-117.25682-5.510314c-67.159438 9.958398-114.275939 39.939816-136.947892 56.663286q2.151014-151.965157 4.295389-303.936952l320.660422-54.731357 61.967793 189.256039A119.653474 119.653474 0 0 0 667.498517 461.377057a13.629728 13.629728 0 0 1-12.892807 10.622291z" fill="#F9D4AA" p-id="2245"></path><path d="M1173.750287 480.185152m-172.944182 0a172.944182 172.944182 0 1 0 345.888364 0 172.944182 172.944182 0 1 0-345.888364 0Z" fill="#FFFFFF" p-id="2246"></path><path d="M394.253348 763.089967a444.058254 260.910033 0 1 0 888.116508 0 444.058254 260.910033 0 1 0-888.116508 0Z" fill="#FBB03B" p-id="2247"></path><path d="M631.535421 579.025573c-4.501196-3.040631-30.46606-19.545016-30.240336-42.429415 0.053111-5.370896 1.838984-11.332657-0.43153-20.939192-1.898735-8.046386-5.072144-11.950078-2.954325-16.059577 1.905374-3.671329 6.02815-3.571745 12.401525-6.439764 8.823141-3.983359 10.237233-8.365054 17.155001-13.643005 14.718513-11.19324 32.995493-10.429762 34.781365-10.330179 9.57334 0.551031 17.081972 3.936887 30.02789 9.772508 6.745155 3.040631 10.117733 4.560946 12.786584 6.499515 16.03966 11.62477 21.191471 45.715687 7.661327 71.116241-10.316901 19.365765-32.656907 35.850234-55.435083 33.50669-11.087017-1.148535-18.881123-6.413208-25.752418-11.053822z" fill="#C6883D" p-id="2248"></path><path d="M742.359115 564.326978c2.224042 2.290432 3.797469 6.147651 2.42985 8.13933-1.593344 2.330265-6.638932 1.327786-7.156769 1.175091a17.725949 17.725949 0 0 1-5.975039-2.861379c-1.905374-1.274675-2.907852-2.343543-4.985838-2.814908a6.96424 6.96424 0 0 0-2.828185-0.152695 6.393292 6.393292 0 0 0-3.465523 2.250598c-3.877136 4.514474-9.347616 7.369215-13.808979 11.286185-5.138533 4.521113-14.061258 8.630612-31.913347 16.796498a16.982388 16.982388 0 0 1-4.328583 1.374259c-6.545987 1.128618-11.950078-2.058069-13.357532-2.980881-2.104541-1.327786-4.826504-3.093742-6.114456-6.605737a11.87705 11.87705 0 0 1-0.431531-6.253874c0.37178-1.99168 1.12198-3.239799 2.476322-5.636454 1.473843-2.615739 2.728601-5.357618 4.282111-7.926885 2.330265-3.85722 7.15013-13.477032 16.710192-32.530767 6.034789-12.049662 12.979112-23.681071 18.164119-36.115791 1.92529-4.647252 4.946004-8.723557 7.037268-13.277864a7.601577 7.601577 0 0 1 1.991679-2.907852c4.063026-3.458884 11.286185-0.896256 11.996551-0.62406 7.740995 2.86138 11.060461 11.286185 13.477032 17.46703 4.049749 10.330178 4.109499 19.372404 4.155971 26.017975 0 3.319466-0.079667 17.84545-1.586704 22.57237a6.950962 6.950962 0 0 0-0.345225 2.655573 8.531028 8.531028 0 0 0 2.390016 5.025671c3.777552 4.10286 7.628133 2.204125 11.1866 5.928567z" fill="#6C4025" p-id="2249"></path><path d="M469.169765 594.735123a48.045952 78.02073 66.07 1 0 142.628402-63.293574 48.045952 78.02073 66.07 1 0-142.628402 63.293574Z" fill="#F9D4AA" p-id="2250"></path><path d="M674.793633 495.536624a45.496602 78.02073 86.9 1 0 155.813121-8.438537 45.496602 78.02073 86.9 1 0-155.813121 8.438537Z" fill="#F9D4AA" p-id="2251"></path><path d="M1019.083085 602.640255c-1.128618-2.031513-17.261224 1.068868-29.264413 10.741792-19.252903 15.588213-24.252019 45.489963-17.991506 49.201126 1.752678 1.042312 4.255556-0.05975 6.207401-0.916172 6.977518-3.073826 12.700277-12.753389 10.994072-20.049575-0.431531-1.832345-1.473843-4.136055-0.258918-6.207402 0.783394-1.327786 1.792512-1.327786 3.810747-3.120298a18.130924 18.130924 0 0 0 3.910331-4.965921c1.201647-2.131097 2.542711-4.514474 2.429849-7.535188-0.073028-1.898735-0.663893-2.728601 0-3.691247 0.796672-1.168452 2.449766-1.042312 4.527752-1.473842 2.370099-0.491281 3.890414-1.434009 6.937684-3.319467 4.003276-2.4896 9.4472-7.296186 8.697001-8.663806z" fill="#6E8341" p-id="2252"></path><path d="M1012.045817 597.953169c-3.565107 0.252279-9.533507 24.212186-3.578385 46.56547 9.586618 35.989651 48.417732 61.516345 57.625931 55.322221 2.582545-1.732761 2.655573-5.828982 2.655573-9.028947 0.139418-11.425602-9.805703-25.281054-21.13836-27.525013-2.854741-0.570948-6.758433-0.590865-8.88953-3.538551-1.374259-1.898735-0.756838-3.319466-1.951846-7.143491a27.053648 27.053648 0 0 0-4.481279-8.438082c-2.224042-2.967603-4.713642-6.287069-9.028948-8.026469-2.721962-1.088785-4.268833-0.796672-5.198284-2.283793-1.135257-1.819067 0.092945-3.983359 0.816589-7.09038 0.823228-3.531912 0.471364-6.194124-0.225724-11.518547-0.916173-7.043907-4.202444-17.46703-6.605737-17.294418z" fill="#909D41" p-id="2253"></path><path d="M1022.435746 595.217929c0.8697 3.153493-18.223869 15.754186-39.54148 17.586531-34.336557 2.947686-68.460668-22.572369-65.864846-32.39135 0.730283-2.768435 4.28875-4.089582 7.070463-5.118616 9.958398-3.671329 25.048691 0.577587 30.466059 9.63309 1.36762 2.283793 2.575906 5.636453 5.795788 6.559265 2.077986 0.590865 3.100381-0.378419 6.8381-0.551031a25.002218 25.002218 0 0 1 8.723557 1.234841c3.266355 0.989201 6.924406 2.097903 9.75923 5.311146 1.785873 1.99168 1.99168 3.425689 3.578385 3.764274 1.938568 0.411614 3.452245-1.327786 5.975039-2.914491 2.828185-1.80579 5.258034-2.336904 10.124371-3.385855 6.393292-1.42737 16.491107-1.852262 17.075334 0.272196z" fill="#909D41" p-id="2254"></path><path d="M1001.820219 604.554978a24.510937 17.287779 57.06 1 0 29.017208-18.800822 24.510937 17.287779 57.06 1 0-29.017208 18.800822Z" fill="#CB5A36" p-id="2255"></path><path d="M1054.382287 618.726388a44.567151 44.567151 0 0 1-15.123487 0.936089c-8.776668-1.155174-22.851204-5.105339-32.583879-18.184035s-11.651326-30.479337-5.543509-45.928133a32.88927 32.88927 0 0 1 8.298666-11.989911l0.066389-0.05975c3.438967-3.17341 14.738429-11.797382 25.154914-17.261224 9.626452-5.058866 33.858554-15.515184 67.557773-25.891835 9.082059-2.901213 20.487745-6.346819 33.858554-9.958399a8.896169 8.896169 0 0 1 10.622291 11.69116 274.247648 274.247648 0 0 1-23.369041 48.012757c-13.775784 22.393118-24.278575 32.583879-34.854393 44.182094-12.733472 13.974952-21.503501 21.563252-34.084278 24.451187z" fill="#E66A36" p-id="2256"></path><path d="M1080.546181 593.601805m-1.528546-2.138991l-21.615791-30.248351q-1.528545-2.138991 0.610446-3.667536l0.334892-0.239317q2.138991-1.528545 3.667536 0.610445l21.615791 30.248351q1.528545 2.138991-0.610445 3.667536l-0.334893 0.239318q-2.138991 1.528545-3.667536-0.610446Z" fill="#CB5A36" p-id="2257"></path><path d="M1098.281889 540.607302m-1.528546-2.13899l-16.717498-23.393859q-1.528545-2.138991 0.610445-3.667536l0.334893-0.239317q2.138991-1.528545 3.667536 0.610445l16.717498 23.393859q1.528545 2.138991-0.610445 3.667535l-0.334893 0.239318q-2.138991 1.528545-3.667536-0.610445Z" fill="#CB5A36" p-id="2258"></path><path d="M1032.696418 578.673889m-1.528545-2.13899l-16.717498-23.393859q-1.528545-2.138991 0.610445-3.667536l0.334892-0.239317q2.138991-1.528545 3.667536 0.610445l16.717498 23.393859q1.528545 2.138991-0.610445 3.667535l-0.334892 0.239318q-2.138991 1.528545-3.667536-0.610445Z" fill="#CB5A36" p-id="2259"></path><path d="M1317.091471 684.876707m-38.094193 0a38.094193 38.094193 0 1 0 76.188385 0 38.094193 38.094193 0 1 0-76.188385 0Z" fill="#FFFFFF" p-id="2260"></path><path d="M1360.523365 707.761107m-28.47438 0a28.47438 28.47438 0 1 0 56.94876 0 28.47438 28.47438 0 1 0-56.94876 0Z" fill="#FFFFFF" p-id="2261"></path><path d="M1360.523365 748.066064m-28.47438 0a28.47438 28.47438 0 1 0 56.94876 0 28.47438 28.47438 0 1 0-56.94876 0Z" fill="#FFFFFF" p-id="2262"></path><path d="M508.801483 279.032147c23.827127-9.845536 47.614421 0.179251 54.492355 3.073825A83.265487 83.265487 0 0 1 595.193907 305.667543a81.546003 81.546003 0 0 1 10.748431 17.374085c4.521113 9.57334 28.779771 60.998508 4.886254 87.414819-2.529433 2.79499-12.74675 13.218114-27.04701 13.198198-22.572369 0-33.725775-26.057809-66.004263-60.852452a362.425944 362.425944 0 0 0-50.548829-45.071711c3.286271-6.386653 14.804819-26.781452 39.926538-37.994608 0.418253-0.179251 0.92945-0.411614 1.646455-0.703727z" fill="#9C593E" p-id="2263"></path><path d="M424.115264 325.584339a10.004871 10.004871 0 0 0-12.799861 10.263789c0.258918 3.750997 0.62406 7.661328 1.12198 11.711076 0.776755 6.260513 1.792512 12.129329 2.934408 17.566615a9.998232 9.998232 0 0 0 12.295302 7.64805 67.053215 67.053215 0 0 0 30.207141-17.174918 9.998232 9.998232 0 0 0-1.759317-15.574935A127.122273 127.122273 0 0 0 424.115264 325.584339z" fill="#ED7F34" p-id="2264"></path><path d="M1005.743795 563.085463a57.426763 35.040284 1.35 1 0 1.651081-70.061115 57.426763 35.040284 1.35 1 0-1.651081 70.061115Z" fill="#FFFFFF" p-id="2265"></path><path d="M1145.605267 606.841214a62.591852 39.402062 39.08 1 0 49.678504-61.173002 62.591852 39.402062 39.08 1 0-49.678504 61.173002Z" fill="#FFFFFF" p-id="2266"></path><path d="M800.197492 289.428715l-40.603709-4.647253a9.958398 9.958398 0 0 0-8.630612 3.3593l-26.821285 30.831201a9.958398 9.958398 0 0 1-17.261224-4.554308l-8.159248-40.046039a9.958398 9.958398 0 0 0-5.875454-7.183324L655.183298 251.228299a9.958398 9.958398 0 0 1-1.009118-17.852088l35.55812-20.135882a9.958398 9.958398 0 0 0 5.025672-7.820662l3.578384-40.709932a9.958398 9.958398 0 0 1 16.670359-6.426486l30.134113 27.60468a9.958398 9.958398 0 0 0 8.975836 2.36346l39.833593-9.181643a9.958398 9.958398 0 0 1 11.319379 13.855451l-16.942554 37.17802a9.958398 9.958398 0 0 0 0.531114 9.294505l21.032137 35.033645a9.958398 9.958398 0 0 1-9.692841 14.997348zM641.334485 159.743814l-35.657704-19.969908a9.958398 9.958398 0 0 0-9.294505-0.252279l-36.666823 18.051256a9.958398 9.958398 0 0 1-14.187398-10.894487l7.966719-40.079234a9.958398 9.958398 0 0 0-2.655573-8.902808L522.37146 68.405386a9.958398 9.958398 0 0 1 5.975039-16.862888L568.963486 46.749189a9.958398 9.958398 0 0 0 7.64805-5.258034l19.060374-36.148986a9.958398 9.958398 0 0 1 17.878644 0.471365l17.101889 37.118269a9.958398 9.958398 0 0 0 7.362576 5.649731l40.271762 6.950962a9.958398 9.958398 0 0 1 5.072145 17.155001l-30.014613 27.737459a9.958398 9.958398 0 0 0-3.100381 8.730195l5.835621 40.497486a9.958398 9.958398 0 0 1-14.745068 10.091177zM166.770338 159.743814l-35.651066-19.969908a9.958398 9.958398 0 0 0-9.294505-0.252279l-36.666822 18.051256a9.958398 9.958398 0 0 1-14.180759-10.894487l7.966719-40.079234a9.958398 9.958398 0 0 0-2.655573-8.902808l-28.494297-29.290968a9.958398 9.958398 0 0 1 5.975039-16.862888l40.630265-4.793309a9.958398 9.958398 0 0 0 7.654688-5.258034l19.053736-36.148986a9.958398 9.958398 0 0 1 17.878644 0.471365L156.094935 42.931803a9.958398 9.958398 0 0 0 7.355937 5.649731L203.702717 55.532496a9.958398 9.958398 0 0 1 5.072145 17.155001l-30.007974 27.737459A9.958398 9.958398 0 0 0 175.679785 109.155151l5.835621 40.497486a9.958398 9.958398 0 0 1-14.745068 10.091177zM1079.006086 159.743814l-35.657704-19.969908a9.958398 9.958398 0 0 0-9.294505-0.252279l-36.666822 18.051256a9.958398 9.958398 0 0 1-14.187398-10.894487l7.966718-40.079234a9.958398 9.958398 0 0 0-2.655573-8.902808l-28.494296-29.290968a9.958398 9.958398 0 0 1 5.975039-16.862888l40.643542-4.793309a9.958398 9.958398 0 0 0 7.681245-5.258034l19.053735-36.148986a9.958398 9.958398 0 0 1 17.878644 0.471365l17.108528 37.118269a9.958398 9.958398 0 0 0 7.362576 5.649731l40.271762 6.950962a9.958398 9.958398 0 0 1 5.072144 17.155001l-30.014612 27.737459a9.958398 9.958398 0 0 0-3.100381 8.743473l5.835621 40.451014a9.958398 9.958398 0 0 1-14.778263 10.124371zM1498.022288 170.930415L1462.364584 150.980424a9.958398 9.958398 0 0 0-9.294505-0.25228l-36.666822 18.051257a9.958398 9.958398 0 0 1-14.187398-10.894488l7.966718-40.079233a9.958398 9.958398 0 0 0-2.655573-8.902808l-28.494296-29.290969a9.958398 9.958398 0 0 1 5.975038-16.862887l40.583793-4.793309a9.958398 9.958398 0 0 0 7.648049-5.258035l19.053736-36.148985a9.958398 9.958398 0 0 1 17.878644 0.471364l17.168278 37.098353a9.958398 9.958398 0 0 0 7.362576 5.65637l40.271763 6.944323a9.958398 9.958398 0 0 1 5.072144 17.155001l-30.014613 27.737458a9.958398 9.958398 0 0 0-3.100381 8.743474l5.828983 40.451013a9.958398 9.958398 0 0 1-14.73843 10.124372zM988.610386 320.644974l-15.740908 0.258918a3.843942 3.843942 0 0 0-3.133576 1.712844l-8.70364 13.111891a3.843942 3.843942 0 0 1-6.831461-0.876339l-5.111978-14.884486a3.85722 3.85722 0 0 0-2.602461-2.456404l-15.156682-4.229a3.837303 3.837303 0 0 1-1.274675-6.765072L942.615864 297.036931a3.837303 3.837303 0 0 0 1.526955-3.23316l-0.663893-15.720991a3.843942 3.843942 0 0 1 6.041428-3.319467l12.886167 9.042226a3.830664 3.830664 0 0 0 3.54519 0.451447l14.745068-5.483757a3.837303 3.837303 0 0 1 5.012394 4.726919l-4.647253 15.04382a3.824025 3.824025 0 0 0 0.663894 3.511996l9.772508 12.328496a3.837303 3.837303 0 0 1-2.887936 6.260514zM871.406678 131.335824l-15.734269 0.258918a3.843942 3.843942 0 0 0-3.133576 1.712844l-8.710279 13.111891a3.843942 3.843942 0 0 1-6.831461-0.876339l-5.105339-14.884486a3.870497 3.870497 0 0 0-2.602461-2.456404l-15.156682-4.229a3.837303 3.837303 0 0 1-1.274675-6.765072l12.574137-9.460478a3.837303 3.837303 0 0 0 1.526955-3.23316l-0.663894-15.720992a3.837303 3.837303 0 0 1 6.041429-3.319466L845.22273 94.549501a3.837303 3.837303 0 0 0 3.54519 0.451447l14.751707-5.483758a3.843942 3.843942 0 0 1 5.012394 4.72692l-4.647253 15.04382a3.843942 3.843942 0 0 0 0.663893 3.511995l9.805703 12.288663a3.843942 3.843942 0 0 1-2.947686 6.247236zM339.668048 277.657888l-40.862628 0.663893a9.958398 9.958398 0 0 0-8.132692 4.468001l-22.612202 34.037806a9.958398 9.958398 0 0 1-17.739227-2.277154l-13.277864-38.651863a9.958398 9.958398 0 0 0-6.751794-6.366736L190.929412 258.531124a9.958398 9.958398 0 0 1-3.319466-17.573253l32.663546-24.564049a9.958398 9.958398 0 0 0 3.983359-8.39161l-1.719483-40.829433A9.958398 9.958398 0 0 1 238.225165 158.601918l33.453579 23.475264a9.958398 9.958398 0 0 0 9.208198 1.18173L319.220137 169.005125a9.958398 9.958398 0 0 1 13.012307 12.275385l-11.989912 39.070116a9.958398 9.958398 0 0 0 1.719484 9.121892l25.393915 32.01957a9.958398 9.958398 0 0 1-7.687883 16.1658z" fill="#4EBFA7" p-id="2267"></path><path d="M149.940645 23.512927h1274.674971v92.94505H149.940645z" fill="#FBB03B" p-id="2268"></path><path d="M544.173713 445.456898m-3.671329 0a3.671329 3.671329 0 1 0 7.342659 0 3.671329 3.671329 0 1 0-7.342659 0Z" fill="#FFFFFF" p-id="2269"></path><path d="M664.856222 377.202036m-3.67133 0a3.671329 3.671329 0 1 0 7.342659 0 3.671329 3.671329 0 1 0-7.342659 0Z" fill="#FFFFFF" p-id="2270"></path><path d="M1102.262266 444.879311m-3.332744 0a3.332744 3.332744 0 1 0 6.665488 0 3.332744 3.332744 0 1 0-6.665488 0Z" fill="#FFFFFF" p-id="2271"></path><path d="M1264.756769 468.235074m-3.332744 0a3.332744 3.332744 0 1 0 6.665488 0 3.332744 3.332744 0 1 0-6.665488 0Z" fill="#FFFFFF" p-id="2272"></path></svg>