<?xml version="1.0" standalone="no"?><!DOCTYPE svg PUBLIC "-//W3C//DTD SVG 1.1//EN" "http://www.w3.org/Graphics/SVG/1.1/DTD/svg11.dtd"><svg t="1616303611095" class="icon" viewBox="0 0 1082 1024" version="1.1" xmlns="http://www.w3.org/2000/svg" p-id="1368" xmlns:xlink="http://www.w3.org/1999/xlink" width="211.328125" height="200"><defs><style type="text/css"></style></defs><path d="M46.393696 626.687197a144.671836 48.964366 90 1 0 97.928732 0 144.671836 48.964366 90 1 0-97.928732 0Z" fill="#876046" p-id="1369"></path><path d="M951.993029 626.687197a144.671836 48.964366 90 1 0 97.928733 0 144.671836 48.964366 90 1 0-97.928733 0Z" fill="#876046" p-id="1370"></path><path d="M1033.407153 637.407206c-3.283606-16.321455-22.019478-27.524348-48.28833-31.870297v-0.772613c32.642911-17.287222 52.054819-41.238233 46.453373-61.326179-4.63568-16.514609-25.206508-26.558581-52.827432-28.972998a442.997136 442.997136 0 0 0-14.293346-63.547442 677.098958 677.098958 0 0 0-59.877528-138.684082c-0.965767-11.589199-16.707762-190.449172-80.641511-209.571351l-3.380183-0.772613-3.380183-0.482883h-2.8973a46.163643 46.163643 0 0 0-5.118563 0h-1.545226a45.487606 45.487606 0 0 0-7.53298 1.545226c-54.952119 16.321455-69.824925 24.530471-73.881144 27.814078A384.375104 384.375104 0 0 0 540.866191 85.375022a384.664834 384.664834 0 0 0-184.364843 45.294453c-4.249373-3.380183-19.315332-11.685776-73.687991-27.717501a45.487606 45.487606 0 0 0-7.532979-1.545226h-1.545227a46.163643 46.163643 0 0 0-5.118563 0h-2.897299l-3.380183 0.482883-3.380183 0.772613c-62.774829 18.832449-79.096284 191.318362-80.544934 208.702161a673.718775 673.718775 0 0 0-60.746719 139.649849 456.421292 456.421292 0 0 0-14.293345 63.547442c-27.620925 2.02811-48.28833 12.072082-52.730856 28.972998-5.698023 20.087945 13.810462 44.038957 46.453373 61.326178a2.414416 2.414416 0 0 0 0 0.772614c-26.075698 4.34595-44.714993 15.548842-48.28833 31.870297-4.34595 21.246865 18.639295 44.81157 54.855543 59.684375 0 2.02811 0.86919 4.05622 1.352073 6.180907a32.739487 32.739487 0 0 0-23.757858 22.019478c-3.863066 18.639295 18.349565 39.59643 52.054819 51.378783a160.413831 160.413831 0 0 0 16.707762 24.047588c112.511808 131.633987 183.495653 170.940687 372.882481 174.707176h35.829941c189.676559-3.76649 260.75698-43.07319 372.979058-174.707176a175.962673 175.962673 0 0 0 16.707762-24.047588c33.608677-11.782352 55.821309-32.739487 52.054819-51.378783a32.932641 32.932641 0 0 0-23.757858-22.019478c0-2.124687 0.86919-4.152796 1.352073-6.180907C1014.091821 681.929046 1037.270219 658.364341 1033.407153 637.407206z" fill="#876046" p-id="1371"></path><path d="M322.796094 136.270922a212.46865 46.067066 0 1 0 424.937301 0 212.46865 46.067066 0 1 0-424.937301 0Z" fill="#876046" p-id="1372"></path><path d="M358.336305 132.697585s0.57946-7.146673-75.426371-29.649034c-86.918993-25.785968-104.978829 209.957657-104.978829 209.957657A1248.736204 1248.736204 0 0 1 277.308488 202.81224a771.744084 771.744084 0 0 1 81.027817-70.114655zM724.361843 132.697585s0-7.146673 75.426371-29.649034c86.918993-25.785968 104.978829 209.957657 104.978829 209.957657A1248.736204 1248.736204 0 0 0 805.003354 202.81224 771.744084 771.744084 0 0 0 724.361843 132.697585z" fill="#803B21" p-id="1373"></path><path d="M358.336305 132.697585s0.57946-7.243249-75.426371-29.745611a41.527963 41.527963 0 0 0-24.240741 0A78.323671 78.323671 0 0 1 280.109211 126.516679a67.603661 67.603661 0 0 1-2.993877 76.295561 762.955608 762.955608 0 0 1 81.220971-70.114655zM277.115334 202.81224l-4.732256 4.63568a53.600046 53.600046 0 0 0 4.732256-4.63568zM724.361843 132.697585s0-7.243249 75.426371-29.745611a41.527963 41.527963 0 0 1 24.240742 0 78.323671 78.323671 0 0 0-20.957135 23.757858 67.603661 67.603661 0 0 0 2.124686 76.102408A762.955608 762.955608 0 0 0 724.361843 132.697585zM805.196507 202.81224l4.732256 4.63568a53.600046 53.600046 0 0 1-4.732256-4.63568z" fill="#AA7541" p-id="1374"></path><path d="M540.866191 85.375022c235.357319 0 368.826262 188.324486 423.198921 365.639232 44.81157 146.120485 54.469236 503.550701-417.790628 503.550701h-10.720009c-472.259864 0-462.698774-357.333639-417.887205-503.550701C172.039929 273.699508 305.605449 85.375022 540.866191 85.375022z" fill="#AA7541" p-id="1375"></path><path d="M540.866191 137.333265c197.402691 0 309.04531 157.902838 355.015799 306.72747 37.56832 122.459204 45.584183 422.329731-350.476696 422.32973h-9.078206c-395.964303 0-388.045017-299.387644-350.476696-422.32973C231.820881 295.236103 343.560076 137.333265 540.866191 137.333265z" fill="#FFFFFF" opacity=".1" p-id="1376" data-spm-anchor-id="a313x.7781069.0.i9"></path><path d="M360.847298 126.516679a67.603661 67.603661 0 0 0 124.777044-9.657666v-0.57946A106.234325 106.234325 0 1 1 540.866191 251.10057a87.788183 87.788183 0 0 0 63.740595-84.408001 125.066774 125.066774 0 0 1-243.373181-40.272467" fill="#D4B062" p-id="1377"></path><path d="M1033.407153 637.407206c-3.283606-16.321455-22.019478-27.524348-48.28833-31.870297v-0.772613c32.642911-17.287222 52.054819-41.238233 46.453373-61.326179-7.436403-26.365428-55.145272-36.312824-107.972705-23.274975a76.005831 76.005831 0 0 0-26.172274 4.05622c-92.81017 29.938764-109.904238 93.872513-186.682683 141.001922-63.644018 38.630664-130.571643 26.075698-160.510407 16.997492l-2.414417-5.794599s-2.60757 1.15892-6.856942 2.704146c-4.34595-1.545227-6.953519-2.704146-6.95352-2.704146l-2.414416 5.794599c-29.938764 9.078206-96.576659 22.019478-160.510408-16.997492-77.261327-47.12941-93.775936-111.063158-186.296376-141.291652a77.261327 77.261327 0 0 0-26.268851-4.05622C105.691764 506.835563 57.982895 516.782959 50.643069 543.148387c-5.698023 20.087945 13.810462 44.038957 46.453373 61.326179a2.414416 2.414416 0 0 0 0 0.772613c-26.075698 4.34595-44.714993 15.548842-48.28833 31.870297-4.34595 21.246865 18.639295 44.81157 54.855543 59.684376 0 2.02811 0.86919 4.05622 1.352073 6.180906a32.739487 32.739487 0 0 0-23.757858 22.019478c-3.863066 18.639295 18.349565 39.59643 52.054819 51.378783a160.413831 160.413831 0 0 0 16.707762 24.047588c112.511808 131.633987 183.495653 170.940687 372.882481 174.707177h35.829941c189.676559-3.76649 260.75698-43.07319 372.979058-174.707177a175.962673 175.962673 0 0 0 16.707762-24.047588c33.608677-11.782352 55.821309-32.739487 52.054819-51.378783a32.932641 32.932641 0 0 0-23.757858-22.019478c0-2.124687 0.86919-4.152796 1.352073-6.180906C1014.091821 681.929046 1037.270219 658.364341 1033.407153 637.407206z" fill="#FFEA82" p-id="1378"></path><path d="M547.433404 676.61733v-1.255496s-2.31784 0.965767-5.987753 2.221263c-3.76649-1.255497-5.987753-2.221263-5.987753-2.221263l-0.57946 1.255496 6.567213 2.510993z" fill="#FFFFFF" opacity=".5" p-id="1379"></path><path d="M549.461514 680.38382l-1.641804-4.34595c0 0.772613 0.86919 2.02811 1.545227 3.669913zM534.395555 676.61733l-1.641804 3.959643h0.482884c0.28973-1.931533 0.772613-3.18703 1.15892-3.959643z" fill="#FFFFFF" opacity=".5" p-id="1380"></path><path d="M114.576817 561.497952C109.651407 578.688598 126.552323 598.776543 154.559554 613.842502a1.641803 1.641803 0 0 1 0 0.676036c-22.405785 3.573336-38.630664 13.231002-41.527964 27.234618-3.76649 18.156412 16.224879 38.630664 47.70887 50.992476l1.15892 5.21514a28.972998 28.972998 0 0 0-20.667405 19.315332c-3.283606 16.031725 16.031725 33.801831 45.294453 43.94238a137.911469 137.911469 0 0 0 14.486499 20.474251C299.424543 893.72166 360.460991 927.137184 525.413925 930.517367H556.51161C721.464544 927.137184 782.983876 893.72166 880.816031 781.209852a137.911469 137.911469 0 0 0 14.486499-20.474252c28.972998-9.657666 48.28833-27.910655 45.294453-43.94238a28.972998 28.972998 0 0 0-20.667405-19.315332c0-1.73838 0.772613-3.47676 1.15892-5.215139 31.483991-12.748119 51.475359-32.836064 47.70887-50.992476C965.803491 627.749541 949.675189 618.091875 927.172828 614.518538a1.641803 1.641803 0 0 0 0-0.676036c28.393538-14.776229 45.294453-35.153904 40.46562-52.34455-6.470636-22.598938-48.28833-31.097684-93.872513-19.991368a69.148888 69.148888 0 0 0-22.695515 3.47676C795.731995 578.398868 772.650173 627.749541 710.744534 665.221284c-63.644018 38.630664-130.571643 26.075698-160.510407 16.997492 0-0.676037 0-1.255497-0.772613-1.834956-0.676037-1.641803-1.15892-2.8973-1.545227-3.669913l-6.470636 2.510993-6.567213-2.510993c0 0.772613-0.86919 2.02811-1.545227 3.669913h-0.482883c0 0.57946 0 1.15892-0.772613 1.834956-29.938764 9.078206-96.576659 22.019478-160.510408-16.997492-61.809062-37.954627-84.98746-86.918993-140.036156-120.23794a69.148888 69.148888 0 0 0-22.695515-3.47676c-46.356796-11.106316-87.88476-2.60757-94.258819 19.991368z" fill="#FFFFFF" opacity=".5" p-id="1381"></path><path d="M540.866191 647.064872a119.755057 119.755057 0 0 1-96.576659 116.857758 119.272174 119.272174 0 0 0 193.153318 0A119.658481 119.658481 0 0 1 540.866191 647.064872z" fill="#F2815F" p-id="1382"></path><path d="M589.927134 654.404698a146.893099 146.893099 0 0 0-97.928733 0 14.293346 14.293346 0 0 0-6.277483 21.633172 177.990783 177.990783 0 0 0 47.612293 45.97049 14.389922 14.389922 0 0 0 14.969383 0A175.19006 175.19006 0 0 0 596.011463 676.03787a14.389922 14.389922 0 0 0-6.180906-21.633172z" fill="#803B21" p-id="1383"></path><path d="M348.678639 491.769604c0 53.310316-4.63568 96.576659-27.041465 96.57666s-40.562197-43.266343-40.562196-96.57666 18.156412-96.576659 40.562196-96.576659 27.041465 43.169767 27.041465 96.576659zM781.535226 491.769604c0 53.310316-18.156412 96.576659-40.562197 96.57666s-27.041465-43.266343-27.041465-96.57666 4.63568-96.576659 27.041465-96.576659 40.562197 43.169767 40.562197 96.576659z" fill="#550000" p-id="1384"></path><path d="M733.246896 281.522217m-57.945995 0a57.945996 57.945996 0 1 0 115.891991 0 57.945996 57.945996 0 1 0-115.891991 0Z" fill="#FFFFFF" opacity=".2" p-id="1385"></path><path d="M799.788214 973.783711a24.144165 24.144165 0 0 1-11.492622-45.39103l3.959643-2.124687a24.144165 24.144165 0 1 1 23.661281 42.010847l-4.732256 2.60757a22.985245 22.985245 0 0 1-11.396046 2.8973z" fill="#876046" p-id="1386"></path><path d="M554.77323 1023.713843H540.866191a176.445556 176.445556 0 0 1-20.087945 0c-213.241264-4.34595-294.751964-60.070682-407.070619-191.608092a162.731671 162.731671 0 0 1-12.554966-16.418032c-49.44725-22.502362-74.943488-60.360412-66.831048-100.053419 0-1.352073 0.57946-2.704146 0.965767-4.056219C7.473302 687.240763-4.59878 657.398575 1.582126 627.749541a75.522948 75.522948 0 0 1 14.196769-30.807955 80.448357 80.448357 0 0 1-11.685776-66.831048 84.11827 84.11827 0 0 1 57.945995-56.304192c2.800723-12.748119 5.987753-25.109931 9.657666-36.892284a723.455754 723.455754 0 0 1 59.491222-140.325886C139.010712 216.332972 164.21722 84.119526 241.478547 57.947251l2.60757-0.86919 3.573336-0.965766a47.032833 47.032833 0 0 1 5.698023-1.255497c1.73838 0 4.34595-0.772613 6.856943-1.062343a68.279698 68.279698 0 0 1 6.95352 0h2.510993a73.205108 73.205108 0 0 1 8.209016 0h2.704146a95.514316 95.514316 0 0 1 16.031726 3.283606c25.592815 7.532979 45.294453 14.196769 59.974105 20.184522a427.8346 427.8346 0 0 1 123.038664-35.926517A152.880852 152.880852 0 0 1 584.808571 0.001255 154.522655 154.522655 0 0 1 715.669944 72.530327l9.657666 4.345949c14.872806-5.987753 35.057327-12.748119 60.167259-20.184522a88.657373 88.657373 0 0 1 15.259112-3.187029h20.377675c2.124687 0 5.601446 0.772613 8.112439 1.255496s3.959643 0.772613 6.08433 1.352074l2.800723 0.772613 2.414416 0.86919c78.227094 26.848311 102.950719 159.544641 110.773429 240.089575a724.324944 724.324944 0 0 1 58.815185 139.263542c3.669913 11.782352 6.856943 24.144165 9.657666 36.892284a83.82854 83.82854 0 0 1 57.945996 56.304192 80.062051 80.062051 0 0 1-11.5892 66.444742 76.585291 76.585291 0 0 1 14.100193 31.001108c6.180906 30.131918-5.891176 59.877529-33.415524 83.925116 0 1.255497 0.676037 2.60757 0.965766 3.959643 8.209016 39.693007-17.287222 77.261327-66.831048 100.053419a162.731671 162.731671 0 0 1-12.554966 16.418032 919.120066 919.120066 0 0 1-70.211231 74.364028 24.144165 24.144165 0 0 1-33.029217-35.250481 886.573732 886.573732 0 0 0 66.348164-70.790691 144.864989 144.864989 0 0 0 12.554966-17.383798 24.530471 24.530471 0 0 1 11.299469-9.657666c30.711378-12.458389 48.28833-31.580568 44.908147-48.28833a23.178398 23.178398 0 0 0-3.380183-7.919286 23.854435 23.854435 0 0 1-3.669913-18.252989 24.144165 24.144165 0 0 1 10.333702-15.452265c10.237126-6.760366 33.512101-24.723625 28.972998-46.26022a30.614801 30.614801 0 0 0-13.327579-19.315332 24.240741 24.240741 0 0 1-9.657666-17.576952 23.854435 23.854435 0 0 1 6.760366-19.315332c7.436403-7.629556 19.315332-22.792092 14.872806-38.630663-4.828833-17.190645-25.303085-23.951011-36.988861-26.462005a24.144165 24.144165 0 0 1-18.735872-19.315332 431.60109 431.60109 0 0 0-11.396045-46.549949 671.014628 671.014628 0 0 0-57.173383-133.179214 24.530471 24.530471 0 0 1-2.993876-9.657665c-7.726133-84.504577-33.029217-188.614215-79.096284-204.066481h-1.255497l-3.573336-0.772614-3.76649-0.57946h-9.464512a54.662389 54.662389 0 0 0-7.339826 1.545227 507.317191 507.317191 0 0 0-64.223479 22.212631A24.240741 24.240741 0 0 1 714.704177 125.550912c-7.919286-3.959643-16.224879-7.629556-24.433894-11.009739a24.627048 24.627048 0 0 1-12.072083-10.720009A106.234325 106.234325 0 0 0 584.808571 48.289585a104.978829 104.978829 0 0 0-76.585291 32.739488 24.433895 24.433895 0 0 1-14.679652 7.243249 382.057264 382.057264 0 0 0-124.294161 36.023094 28.972998 28.972998 0 0 1-22.985244 0.57946 548.941731 548.941731 0 0 0-63.257712-21.922902 49.254096 49.254096 0 0 0-8.015863-1.545226h-12.168659l-3.283606 0.772613H257.510273c-45.68076 15.355689-71.080421 118.982444-78.999708 202.810984a23.564705 23.564705 0 0 1-2.993876 9.657666 674.008505 674.008505 0 0 0-57.945996 135.207323A447.632816 447.632816 0 0 0 106.271224 497.564204a24.144165 24.144165 0 0 1-18.639295 19.315332c-11.782352 2.510993-32.256604 9.657666-36.98886 26.462004-4.442526 15.741995 7.436403 30.904531 14.872805 38.630664a24.144165 24.144165 0 0 1 6.760366 19.315332 24.530471 24.530471 0 0 1-9.657666 17.576952 30.807954 30.807954 0 0 0-13.424155 19.315332c-4.442526 21.536595 19.315332 39.499854 28.972997 46.260219a24.144165 24.144165 0 0 1 6.760367 33.705255 20.570828 20.570828 0 0 0-3.380183 7.919286c-3.47676 16.997492 14.100192 36.119671 44.811569 48.288329a24.530471 24.530471 0 0 1 11.29947 9.657666 165.532394 165.532394 0 0 0 12.651542 17.383799C259.248653 928.102951 328.397541 971.272717 522.420049 975.425514h2.221263a125.549657 125.549657 0 0 0 16.224879 0h19.025602a782.27094 782.27094 0 0 0 119.658481-10.623433 24.144165 24.144165 0 0 1 8.402169 47.612293A818.68034 818.68034 0 0 1 561.630173 1023.713843a56.497346 56.497346 0 0 1-6.856943 0z" fill="#876046" p-id="1387" data-spm-anchor-id="a313x.7781069.0.i8" class="selected"></path></svg>